<svg xmlns="http://www.w3.org/2000/svg" width="20.296" height="23.024" viewBox="0 0 20.296 23.024">
  <path id="Path_2" data-name="Path 2" d="M214.461,61.675h-1.822c.017-.2.03-.4.03-.6a7.075,7.075,0,1,0-14.151,0c0,.2.022.4.038.6h-1.83l-1.273,13.361a1.817,1.817,0,0,0,1.809,1.988h16.662a1.817,1.817,0,0,0,1.809-1.988Zm-14.023-.6a5.157,5.157,0,1,1,10.313,0,5.216,5.216,0,0,1-.038.6H200.476A5.2,5.2,0,0,1,200.437,61.076Zm-3.062,14.03,1.1-11.512h14.245l1.1,11.512Z" transform="translate(-195.446 -54)" fill="#fff"/>
</svg>
